<?xml version="1.0" encoding="UTF-8" standalone="no"?>
<!DOCTYPE svg PUBLIC "-//W3C//DTD SVG 1.1//EN"
 "http://www.w3.org/Graphics/SVG/1.1/DTD/svg11.dtd">
<!-- Generated by graphviz version 2.38.0 (20140413.2041)
 -->
<!-- Title: %3 Pages: 1 -->
<svg width="972pt" height="337pt"
 viewBox="0.00 0.00 972.15 336.62" xmlns="http://www.w3.org/2000/svg" xmlns:xlink="http://www.w3.org/1999/xlink">
<g id="graph0" class="graph" transform="scale(1 1) rotate(0) translate(4 332.617)">
<title>%3</title>
<polygon fill="white" stroke="none" points="-4,4 -4,-332.617 968.154,-332.617 968.154,4 -4,4"/>
<!-- Y -->
<g id="node1" class="node"><title>Y</title>
<polygon fill="lightgray" stroke="black" points="123.077,-310.04 100.077,-310.04 100.077,-292.04 123.077,-292.04 123.077,-310.04"/>
<text text-anchor="middle" x="111.577" y="-298.84" font-family="Times New Roman,serif" font-size="9.00">Y</text>
</g>
<!-- Yaw -->
<g id="node4" class="node"><title>Yaw</title>
<ellipse fill="lightblue" stroke="black" cx="116.577" cy="-118.731" rx="23.1702" ry="23.1702"/>
<text text-anchor="middle" x="116.577" y="-116.531" font-family="Times New Roman,serif" font-size="9.00">Yaw</text>
</g>
<!-- Y&#45;&gt;Yaw -->
<g id="edge11" class="edge"><title>Y&#45;&gt;Yaw</title>
<path fill="none" stroke="red" stroke-width="0.335047" stroke-dasharray="1,5" d="M109.938,-292.029C106.262,-272.974 98.0294,-223.466 102.577,-182.309 103.702,-172.125 105.828,-161.176 108.089,-151.328"/>
<polygon fill="red" stroke="red" stroke-width="0.335047" points="111.507,-152.085 110.458,-141.542 104.703,-150.438 111.507,-152.085"/>
</g>
<!-- 22846 -->
<g id="node11" class="node"><title>22846</title>
<ellipse fill="white" stroke="black" cx="27.5772" cy="-209.886" rx="27.6545" ry="27.6545"/>
<text text-anchor="middle" x="27.5772" y="-207.686" font-family="Times New Roman,serif" font-size="9.00">22846</text>
</g>
<!-- Y&#45;&gt;22846 -->
<g id="edge9" class="edge"><title>Y&#45;&gt;22846</title>
<path fill="none" stroke="red" stroke-width="0.196454" d="M103.825,-291.813C92.453,-279.742 70.7155,-256.671 53.3508,-238.241"/>
<polygon fill="red" stroke="red" stroke-width="0.196454" points="55.6245,-235.55 46.2195,-230.672 50.5296,-240.351 55.6245,-235.55"/>
</g>
<!-- 1999 -->
<g id="node13" class="node"><title>1999</title>
<ellipse fill="white" stroke="black" cx="209.577" cy="-209.886" rx="25" ry="25"/>
<text text-anchor="middle" x="209.577" y="-207.686" font-family="Times New Roman,serif" font-size="9.00">1999</text>
</g>
<!-- Y&#45;&gt;1999 -->
<g id="edge3" class="edge"><title>Y&#45;&gt;1999</title>
<path fill="none" stroke="green" stroke-width="0.165931" d="M120.621,-291.813C134.907,-278.816 163.212,-253.066 184.073,-234.088"/>
<polygon fill="green" stroke="green" stroke-width="0.165931" points="186.618,-236.505 191.659,-227.186 181.907,-231.327 186.618,-236.505"/>
</g>
<!-- 24022 -->
<g id="node14" class="node"><title>24022</title>
<ellipse fill="white" stroke="black" cx="139.577" cy="-209.886" rx="27.6545" ry="27.6545"/>
<text text-anchor="middle" x="139.577" y="-207.686" font-family="Times New Roman,serif" font-size="9.00">24022</text>
</g>
<!-- Y&#45;&gt;24022 -->
<g id="edge14" class="edge"><title>Y&#45;&gt;24022</title>
<path fill="none" stroke="green" stroke-width="0.281593" d="M114.161,-291.813C117.443,-281.362 123.315,-262.666 128.589,-245.874"/>
<polygon fill="green" stroke="green" stroke-width="0.281593" points="131.943,-246.874 131.6,-236.285 125.265,-244.777 131.943,-246.874"/>
</g>
<!-- Z -->
<g id="node2" class="node"><title>Z</title>
<polygon fill="lightgray" stroke="black" points="221.077,-310.04 198.077,-310.04 198.077,-292.04 221.077,-292.04 221.077,-310.04"/>
<text text-anchor="middle" x="209.577" y="-298.84" font-family="Times New Roman,serif" font-size="9.00">Z</text>
</g>
<!-- Pitch -->
<g id="node3" class="node"><title>Pitch</title>
<ellipse fill="lightblue" stroke="black" cx="27.5772" cy="-27.5772" rx="25" ry="25"/>
<text text-anchor="middle" x="27.5772" y="-25.3772" font-family="Times New Roman,serif" font-size="9.00">Pitch</text>
</g>
<!-- 22274 -->
<g id="node5" class="node"><title>22274</title>
<ellipse fill="white" stroke="black" cx="315.577" cy="-301.04" rx="27.6545" ry="27.6545"/>
<text text-anchor="middle" x="315.577" y="-298.84" font-family="Times New Roman,serif" font-size="9.00">22274</text>
</g>
<!-- 13399 -->
<g id="node15" class="node"><title>13399</title>
<ellipse fill="white" stroke="black" cx="352.577" cy="-209.886" rx="27.6545" ry="27.6545"/>
<text text-anchor="middle" x="352.577" y="-207.686" font-family="Times New Roman,serif" font-size="9.00">13399</text>
</g>
<!-- 22274&#45;&gt;13399 -->
<g id="edge8" class="edge"><title>22274&#45;&gt;13399</title>
<path fill="none" stroke="red" stroke-width="0.374606" d="M325.884,-275.206C329.773,-265.835 334.267,-255.005 338.446,-244.936"/>
<polygon fill="red" stroke="red" stroke-width="0.374606" points="341.725,-246.165 342.326,-235.587 335.26,-243.482 341.725,-246.165"/>
</g>
<!-- 21132 -->
<g id="node6" class="node"><title>21132</title>
<ellipse fill="white" stroke="black" cx="425.577" cy="-209.886" rx="27.6545" ry="27.6545"/>
<text text-anchor="middle" x="425.577" y="-207.686" font-family="Times New Roman,serif" font-size="9.00">21132</text>
</g>
<!-- 13970 -->
<g id="node7" class="node"><title>13970</title>
<ellipse fill="white" stroke="black" cx="571.577" cy="-301.04" rx="27.6545" ry="27.6545"/>
<text text-anchor="middle" x="571.577" y="-298.84" font-family="Times New Roman,serif" font-size="9.00">13970</text>
</g>
<!-- 2207 -->
<g id="node8" class="node"><title>2207</title>
<ellipse fill="white" stroke="black" cx="27.5772" cy="-118.731" rx="25" ry="25"/>
<text text-anchor="middle" x="27.5772" y="-116.531" font-family="Times New Roman,serif" font-size="9.00">2207</text>
</g>
<!-- 2207&#45;&gt;Pitch -->
<g id="edge2" class="edge"><title>2207&#45;&gt;Pitch</title>
<path fill="none" stroke="green" stroke-width="0.155087" d="M27.5772,-93.8398C27.5772,-84.246 27.5772,-73.0098 27.5772,-62.5906"/>
<polygon fill="green" stroke="green" stroke-width="0.155087" points="31.0773,-62.5348 27.5772,-52.5348 24.0773,-62.5349 31.0773,-62.5348"/>
</g>
<!-- 14908 -->
<g id="node9" class="node"><title>14908</title>
<ellipse fill="white" stroke="black" cx="644.577" cy="-301.04" rx="27.6545" ry="27.6545"/>
<text text-anchor="middle" x="644.577" y="-298.84" font-family="Times New Roman,serif" font-size="9.00">14908</text>
</g>
<!-- 21309 -->
<g id="node10" class="node"><title>21309</title>
<ellipse fill="white" stroke="black" cx="244.577" cy="-27.5772" rx="27.6545" ry="27.6545"/>
<text text-anchor="middle" x="244.577" y="-25.3772" font-family="Times New Roman,serif" font-size="9.00">21309</text>
</g>
<!-- 22846&#45;&gt;2207 -->
<g id="edge10" class="edge"><title>22846&#45;&gt;2207</title>
<path fill="none" stroke="red" stroke-width="0.467713" d="M27.5772,-182.137C27.5772,-173.267 27.5772,-163.271 27.5772,-153.92"/>
<polygon fill="red" stroke="red" stroke-width="0.467713" points="31.0773,-153.731 27.5772,-143.731 24.0773,-153.731 31.0773,-153.731"/>
</g>
<!-- 24264 -->
<g id="node12" class="node"><title>24264</title>
<ellipse fill="white" stroke="black" cx="498.577" cy="-209.886" rx="27.6545" ry="27.6545"/>
<text text-anchor="middle" x="498.577" y="-207.686" font-family="Times New Roman,serif" font-size="9.00">24264</text>
</g>
<!-- 16355 -->
<g id="node18" class="node"><title>16355</title>
<ellipse fill="white" stroke="black" cx="526.577" cy="-118.731" rx="27.6545" ry="27.6545"/>
<text text-anchor="middle" x="526.577" y="-116.531" font-family="Times New Roman,serif" font-size="9.00">16355</text>
</g>
<!-- 24264&#45;&gt;16355 -->
<g id="edge16" class="edge"><title>24264&#45;&gt;16355</title>
<path fill="none" stroke="red" stroke-width="0.314515" d="M506.676,-183.099C509.457,-174.244 512.618,-164.178 515.59,-154.717"/>
<polygon fill="red" stroke="red" stroke-width="0.314515" points="518.936,-155.742 518.593,-145.153 512.258,-153.645 518.936,-155.742"/>
</g>
<!-- 1999&#45;&gt;Yaw -->
<g id="edge1" class="edge"><title>1999&#45;&gt;Yaw</title>
<path fill="none" stroke="green" stroke-width="0.741411" d="M192.085,-192.117C177.525,-178.159 156.647,-158.144 140.534,-142.697"/>
<polygon fill="green" stroke="green" stroke-width="0.741411" points="142.696,-139.921 133.055,-135.528 137.851,-144.975 142.696,-139.921"/>
</g>
<!-- 10216 -->
<g id="node19" class="node"><title>10216</title>
<ellipse fill="white" stroke="black" cx="244.577" cy="-118.731" rx="27.6545" ry="27.6545"/>
<text text-anchor="middle" x="244.577" y="-116.531" font-family="Times New Roman,serif" font-size="9.00">10216</text>
</g>
<!-- 1999&#45;&gt;10216 -->
<g id="edge7" class="edge"><title>1999&#45;&gt;10216</title>
<path fill="none" stroke="red" stroke-width="0.591516" d="M218.409,-186.388C222.223,-176.673 226.772,-165.085 231,-154.317"/>
<polygon fill="red" stroke="red" stroke-width="0.591516" points="234.364,-155.324 234.761,-144.736 227.849,-152.766 234.364,-155.324"/>
</g>
<!-- 20961 -->
<g id="node16" class="node"><title>20961</title>
<ellipse fill="white" stroke="black" cx="717.577" cy="-301.04" rx="27.6545" ry="27.6545"/>
<text text-anchor="middle" x="717.577" y="-298.84" font-family="Times New Roman,serif" font-size="9.00">20961</text>
</g>
<!-- 21345 -->
<g id="node17" class="node"><title>21345</title>
<ellipse fill="white" stroke="black" cx="790.577" cy="-301.04" rx="27.6545" ry="27.6545"/>
<text text-anchor="middle" x="790.577" y="-298.84" font-family="Times New Roman,serif" font-size="9.00">21345</text>
</g>
<!-- 10216&#45;&gt;21309 -->
<g id="edge5" class="edge"><title>10216&#45;&gt;21309</title>
<path fill="none" stroke="red" stroke-width="0.110333" d="M244.577,-90.9823C244.577,-82.96 244.577,-74.0155 244.577,-65.4608"/>
<polygon fill="red" stroke="red" stroke-width="0.110333" points="248.077,-65.3075 244.577,-55.3075 241.077,-65.3076 248.077,-65.3075"/>
</g>
<!-- 23912 -->
<g id="node20" class="node"><title>23912</title>
<ellipse fill="white" stroke="black" cx="279.577" cy="-209.886" rx="27.6545" ry="27.6545"/>
<text text-anchor="middle" x="279.577" y="-207.686" font-family="Times New Roman,serif" font-size="9.00">23912</text>
</g>
<!-- 23912&#45;&gt;10216 -->
<g id="edge13" class="edge"><title>23912&#45;&gt;10216</title>
<path fill="none" stroke="red" stroke-width="0.391695" d="M269.828,-184.051C266.217,-174.854 262.055,-164.252 258.165,-154.343"/>
<polygon fill="red" stroke="red" stroke-width="0.391695" points="261.308,-152.771 254.396,-144.742 254.792,-155.329 261.308,-152.771"/>
</g>
<!-- 13167 -->
<g id="node21" class="node"><title>13167</title>
<ellipse fill="white" stroke="black" cx="863.577" cy="-301.04" rx="27.6545" ry="27.6545"/>
<text text-anchor="middle" x="863.577" y="-298.84" font-family="Times New Roman,serif" font-size="9.00">13167</text>
</g>
<!-- 23155 -->
<g id="node22" class="node"><title>23155</title>
<ellipse fill="white" stroke="black" cx="936.577" cy="-301.04" rx="27.6545" ry="27.6545"/>
<text text-anchor="middle" x="936.577" y="-298.84" font-family="Times New Roman,serif" font-size="9.00">23155</text>
</g>
<!-- 21623 -->
<g id="node23" class="node"><title>21623</title>
<ellipse fill="white" stroke="black" cx="388.577" cy="-301.04" rx="27.6545" ry="27.6545"/>
<text text-anchor="middle" x="388.577" y="-298.84" font-family="Times New Roman,serif" font-size="9.00">21623</text>
</g>
<!-- 21623&#45;&gt;13399 -->
<g id="edge6" class="edge"><title>21623&#45;&gt;13399</title>
<path fill="none" stroke="green" stroke-width="0.564469" d="M378.549,-275.206C374.797,-265.913 370.465,-255.186 366.428,-245.188"/>
<polygon fill="green" stroke="green" stroke-width="0.564469" points="369.666,-243.858 362.676,-235.896 363.175,-246.479 369.666,-243.858"/>
</g>
<!-- 20733 -->
<g id="node24" class="node"><title>20733</title>
<ellipse fill="white" stroke="black" cx="498.577" cy="-301.04" rx="27.6545" ry="27.6545"/>
<text text-anchor="middle" x="498.577" y="-298.84" font-family="Times New Roman,serif" font-size="9.00">20733</text>
</g>
<!-- 20733&#45;&gt;21132 -->
<g id="edge4" class="edge"><title>20733&#45;&gt;21132</title>
<path fill="none" stroke="green" stroke-width="0.158808" stroke-dasharray="1,5" d="M481.277,-278.912C471.731,-267.254 459.736,-252.604 449.325,-239.888"/>
<polygon fill="green" stroke="green" stroke-width="0.158808" points="451.796,-237.382 442.753,-231.862 446.38,-241.817 451.796,-237.382"/>
</g>
<!-- 20733&#45;&gt;24264 -->
<g id="edge15" class="edge"><title>20733&#45;&gt;24264</title>
<path fill="none" stroke="green" stroke-width="0.359374" d="M498.577,-273.291C498.577,-265.269 498.577,-256.324 498.577,-247.769"/>
<polygon fill="green" stroke="green" stroke-width="0.359374" points="502.077,-247.616 498.577,-237.616 495.077,-247.616 502.077,-247.616"/>
</g>
<!-- 20733&#45;&gt;16355 -->
<g id="edge12" class="edge"><title>20733&#45;&gt;16355</title>
<path fill="none" stroke="green" stroke-width="0.18214" stroke-dasharray="1,5" d="M515.038,-278.761C522.921,-267.223 531.515,-252.315 535.577,-237.463 542.926,-210.594 539.937,-179.076 535.515,-155.417"/>
<polygon fill="green" stroke="green" stroke-width="0.18214" points="538.914,-154.569 533.486,-145.47 532.055,-155.968 538.914,-154.569"/>
</g>
</g>
</svg>
